<svg width="276" height="45" viewBox="0 0 276 45" fill="none" xmlns="http://www.w3.org/2000/svg">
<path fill-rule="evenodd" clip-rule="evenodd" d="M36.3212 22.7164C36.3212 27.0382 35.0252 31.0292 32.4241 34.7092C29.8222 38.3886 26.5047 40.9387 22.4516 42.3587C20.3063 43.1054 18.1291 43.4785 15.9011 43.4785H0V1.99496H15.9011C19.7878 1.99496 23.3846 3.08355 26.7019 5.24955C29.9565 7.35426 32.4549 10.1733 34.1965 13.6983C35.6166 16.6109 36.3212 19.6167 36.3212 22.7164ZM25.1259 22.7164C25.1259 19.8449 24.3282 17.3362 22.7315 15.2011C20.5964 12.3711 17.435 10.951 13.2158 10.951H10.7595V34.5224H13.2158C17.4557 34.5224 20.6171 33.1023 22.7315 30.2728C24.3282 28.1163 25.1259 25.5974 25.1259 22.7164ZM53.9741 43.4785H43.2146V1.99496H53.9741V43.4785ZM86.2836 43.4785H62.7123V1.99496H86.2836V10.951H73.4717V18.1035H85.5997V27.0596H73.4717V34.5224H86.2836V43.4785ZM121.818 29.7546C121.818 36.7718 118.749 41.3433 112.602 43.468C110.457 44.2251 108.156 44.5979 105.688 44.5979C100.505 44.5979 95.7064 43.0324 91.2805 39.9026L95.8822 31.2264C99.1169 34.17 102.278 35.6419 105.378 35.6419C106.766 35.6419 107.959 35.3104 108.922 34.6576C110.052 33.9212 110.623 32.8747 110.623 31.5166C110.623 30.2833 110.001 29.2567 108.747 28.4376C107.813 27.8262 106.238 27.1941 104.04 26.5617C101.366 25.7738 99.6865 25.2243 99.0026 24.9237C97.9035 24.4578 96.9708 23.9084 96.2042 23.2865C93.9962 21.4617 92.8971 18.7047 92.8971 15.0245C92.8971 11.1792 94.0375 7.99681 96.3283 5.457C98.9921 2.48234 102.558 1 107.005 1C111.473 1 115.847 2.11972 120.138 4.36841L115.847 12.7544C113.494 10.8888 111.131 9.95608 108.736 9.95608C107.586 9.95608 106.549 10.2567 105.637 10.8474C104.61 11.5211 104.092 12.4125 104.092 13.5424C104.092 14.6412 104.766 15.5948 106.124 16.393C106.736 16.7557 108.549 17.388 111.586 18.2896C115.391 19.4093 118.107 20.9853 119.723 23.0377C121.123 24.779 121.818 27.0175 121.818 29.7546ZM152.251 43.4785H128.679V1.99496H152.251V10.951H139.439V18.1035H151.567V27.0596H139.439V34.5224H152.251V43.4785ZM182.809 43.4785H159.113V1.99496H169.872V34.5224H182.809V43.4785Z" fill="#E30016"/>
<path fill-rule="evenodd" clip-rule="evenodd" d="M187.214 1H275V42.9911H187.214V1Z" fill="white" stroke="#1B1918" stroke-width="1.47122"/>
<path fill-rule="evenodd" clip-rule="evenodd" d="M208.735 12.4405C208.735 14.0131 208.263 15.4658 207.316 16.8046C206.37 18.144 205.162 19.072 203.688 19.5884C202.907 19.86 202.115 19.9957 201.304 19.9957H195.518V4.90064H201.304C202.718 4.90064 204.027 5.29633 205.234 6.08505C206.419 6.85018 207.328 7.87676 207.961 9.15894C208.478 10.2186 208.735 11.3128 208.735 12.4405ZM204.66 12.4405C204.66 11.3955 204.37 10.4827 203.79 9.70567C203.012 8.67642 201.862 8.15936 200.327 8.15936H199.433V16.737H200.327C201.87 16.737 203.02 16.22 203.79 15.1907C204.37 14.4054 204.66 13.4892 204.66 12.4405ZM225.569 19.9957H221.382L220.409 17.3706H214.996L213.958 19.9957H209.817L215.614 4.90064H219.892L225.569 19.9957ZM219.368 14.3833L217.727 9.56242L216.063 14.3833H219.368ZM242.362 19.9957H238.446L231.227 10.751V19.9957H227.312V4.90064H231.227L238.446 14.1345V4.90064H242.362V19.9957ZM256.397 19.6414C255.115 20.1502 253.927 20.4031 252.836 20.4031C250.935 20.4031 249.234 19.7958 247.729 18.5776C245.813 17.0238 244.855 14.9976 244.855 12.4972C244.855 9.99241 245.813 7.96285 247.729 6.409C249.234 5.19078 250.947 4.5835 252.871 4.5835C253.915 4.5835 255.092 4.83643 256.397 5.34522V10.0381C256.027 9.58504 255.655 9.24576 255.269 9.01909C254.568 8.59713 253.817 8.38554 253.01 8.38554C251.995 8.38554 251.109 8.69101 250.354 9.30584C249.404 10.0829 248.929 11.1467 248.929 12.4972C248.929 13.8436 249.404 14.9037 250.354 15.6808C251.109 16.2958 251.995 16.6011 253.01 16.6011C253.817 16.6011 254.568 16.3895 255.269 15.9675C255.647 15.7484 256.02 15.405 256.397 14.9487V19.6414ZM267.46 19.9957H258.883V4.90064H267.46V8.15936H262.798V10.7619H267.212V14.0206H262.798V16.737H267.46V19.9957Z" fill="#1B1918"/>
<path fill-rule="evenodd" clip-rule="evenodd" d="M202.882 33.6841C202.882 36.2377 201.765 37.9013 199.529 38.6747C198.748 38.9497 197.91 39.0854 197.013 39.0854C195.127 39.0854 193.38 38.5161 191.77 37.3764L193.444 34.2199C194.621 35.2912 195.772 35.8267 196.899 35.8267C197.405 35.8267 197.839 35.7061 198.189 35.4682C198.601 35.2 198.808 34.8196 198.808 34.3252C198.808 33.8764 198.582 33.5029 198.125 33.205C197.786 32.9822 197.213 32.7526 196.413 32.5225C195.44 32.2355 194.829 32.0356 194.58 31.9262C194.18 31.7564 193.841 31.5565 193.561 31.3306C192.758 30.6666 192.358 29.6634 192.358 28.324C192.358 26.9244 192.773 25.767 193.607 24.8425C194.576 23.76 195.874 23.2204 197.492 23.2204C199.117 23.2204 200.709 23.6277 202.271 24.4468L200.709 27.4981C199.853 26.8191 198.993 26.4798 198.122 26.4798C197.703 26.4798 197.326 26.5888 196.994 26.8038C196.62 27.0492 196.432 27.3734 196.432 27.7849C196.432 28.1847 196.677 28.5315 197.171 28.8216C197.394 28.9542 198.054 29.1843 199.159 29.5126C200.543 29.92 201.532 30.4927 202.12 31.2401C202.629 31.8736 202.882 32.6886 202.882 33.6841ZM214.319 26.8417H211.06V38.6781H207.145V26.8417H203.953V23.583H214.319V26.8417ZM229.191 32.2847C229.191 33.1899 229.119 33.9667 228.973 34.6078C228.743 35.5998 228.199 36.5092 227.335 37.3276C226.113 38.4857 224.48 39.0628 222.436 39.0628C220.35 39.0628 218.724 38.4748 217.555 37.2937C216.936 36.6755 216.514 35.8985 216.284 34.9587C216.122 34.2991 216.042 33.4049 216.042 32.2847V23.583H219.957V31.7379C219.957 32.3941 219.969 32.881 219.991 33.205C220.063 34.2274 220.531 34.9402 221.395 35.3476C221.749 35.5171 222.138 35.5998 222.568 35.5998C223.526 35.5998 224.246 35.2642 224.733 34.5968C225.095 34.1026 225.276 33.1483 225.276 31.7379V23.583H229.191V32.2847ZM245.58 31.1229C245.58 32.6954 245.109 34.1481 244.162 35.487C243.215 36.8263 242.008 37.7544 240.533 38.2707C239.752 38.5424 238.96 38.6781 238.149 38.6781H232.363V23.583H238.149C239.564 23.583 240.872 23.9787 242.08 24.7674C243.264 25.5325 244.173 26.5591 244.807 27.8413C245.323 28.9009 245.58 29.9951 245.58 31.1229ZM241.506 31.1229C241.506 30.0778 241.216 29.1651 240.635 28.388C239.858 27.3588 238.708 26.8417 237.173 26.8417H236.278V35.4194H237.173C238.715 35.4194 239.865 34.9023 240.635 33.873C241.216 33.0877 241.506 32.1716 241.506 31.1229ZM252.004 38.6781H248.088V23.583H252.004V38.6781ZM271.207 31.1795C271.207 33.2312 270.524 35.0305 269.163 36.5768C267.609 38.339 265.504 39.2214 262.852 39.2214C260.204 39.2214 258.103 38.339 256.55 36.5768C255.187 35.0305 254.505 33.2312 254.505 31.1795C254.505 30.2439 254.69 29.2857 255.059 28.3012C255.425 27.3167 255.919 26.4723 256.538 25.7745C258.092 24.0125 260.196 23.1299 262.852 23.1299C265.504 23.1299 267.609 24.0125 269.163 25.7745C270.524 27.3208 271.207 29.1237 271.207 31.1795ZM267.133 31.1795C267.133 30.1157 266.794 29.1955 266.115 28.4184C265.244 27.4264 264.157 26.9319 262.852 26.9319C261.951 26.9319 261.136 27.1851 260.404 27.6905C259.676 28.1998 259.156 28.8749 258.842 29.7159C258.665 30.1984 258.578 30.6851 258.578 31.1795C258.578 32.202 258.918 33.1147 259.597 33.9219C260.438 34.9215 261.521 35.4194 262.852 35.4194C264.18 35.4194 265.266 34.9249 266.115 33.9329C266.794 33.1408 267.133 32.2246 267.133 31.1795Z" fill="#1B1918"/>
</svg>
