<svg width="25" height="24" viewBox="0 0 25 24" fill="none" xmlns="http://www.w3.org/2000/svg">
<path d="M3.82324 6H5.82324H21.8232" stroke="black" stroke-width="1.76471" stroke-linecap="round" stroke-linejoin="round"/>
<path d="M19.8232 6V20C19.8232 20.5304 19.6125 21.0391 19.2375 21.4142C18.8624 21.7893 18.3537 22 17.8232 22H7.82324C7.29281 22 6.7841 21.7893 6.40903 21.4142C6.03396 21.0391 5.82324 20.5304 5.82324 20V6M8.82324 6V4C8.82324 3.46957 9.03396 2.96086 9.40903 2.58579C9.7841 2.21071 10.2928 2 10.8232 2H14.8232C15.3537 2 15.8624 2.21071 16.2375 2.58579C16.6125 2.96086 16.8232 3.46957 16.8232 4V6" stroke="black" stroke-width="1.76471" stroke-linecap="round" stroke-linejoin="round"/>
<path d="M10.8232 11V17" stroke="black" stroke-width="1.76471" stroke-linecap="round" stroke-linejoin="round"/>
<path d="M14.8232 11V17" stroke="black" stroke-width="1.76471" stroke-linecap="round" stroke-linejoin="round"/>
</svg>
