<svg width="25" height="24" viewBox="0 0 25 24" fill="none" xmlns="http://www.w3.org/2000/svg">
<path d="M11.1768 4H4.17676C3.64632 4 3.13762 4.21071 2.76254 4.58579C2.38747 4.96086 2.17676 5.46957 2.17676 6V20C2.17676 20.5304 2.38747 21.0391 2.76254 21.4142C3.13762 21.7893 3.64632 22 4.17676 22H18.1768C18.7072 22 19.2159 21.7893 19.591 21.4142C19.966 21.0391 20.1768 20.5304 20.1768 20V13" stroke="black" stroke-width="2" stroke-linecap="round" stroke-linejoin="round"/>
<path d="M18.6768 2.50023C19.0746 2.1024 19.6141 1.87891 20.1768 1.87891C20.7394 1.87891 21.2789 2.1024 21.6768 2.50023C22.0746 2.89805 22.2981 3.43762 22.2981 4.00023C22.2981 4.56284 22.0746 5.1024 21.6768 5.50023L12.1768 15.0002L8.17676 16.0002L9.17676 12.0002L18.6768 2.50023Z" stroke="black" stroke-width="2" stroke-linecap="round" stroke-linejoin="round"/>
</svg>
